<?xml version="1.0" encoding="utf-8"?>
<!-- Generator: Adobe Illustrator 16.0.0, SVG Export Plug-In . SVG Version: 6.00 Build 0)  -->
<!DOCTYPE svg PUBLIC "-//W3C//DTD SVG 1.1//EN" "http://www.w3.org/Graphics/SVG/1.1/DTD/svg11.dtd">
<svg version="1.1"
	 id="svg1" xmlns:svg="http://www.w3.org/2000/svg" xmlns:rdf="http://www.w3.org/1999/02/22-rdf-syntax-ns#" xmlns:cc="http://web.resource.org/cc/" xmlns:dc="http://purl.org/dc/elements/1.1/"
	 xmlns="http://www.w3.org/2000/svg" xmlns:xlink="http://www.w3.org/1999/xlink" x="0px" y="0px" width="803px" height="351.758px"
	 viewBox="-94.5 216.5 803 351.758" enable-background="new -94.5 216.5 803 351.758" xml:space="preserve">
<g id="g1972" transform="translate(-182.88 -59.723)">
	
		<radialGradient id="path832_1_" cx="758.4982" cy="507.5961" r="502.5835" gradientTransform="matrix(-2.460235e-008 0.5628 1.2637 5.523713e-008 -142.2959 25.7924)" gradientUnits="userSpaceOnUse">
		<stop  offset="0" style="stop-color:#1E9CD4"/>
		<stop  offset="1" style="stop-color:#FFFFFF"/>
	</radialGradient>
	<path id="path832" fill="url(#path832_1_)" fill-opacity="0.75" stroke="#000000" stroke-width="0.75" d="M881.633,448.171
		c-3.058,74.654-23.286,137.72-81.285,147.992c-165.778,16.201-374.744,27.585-547.546,26.708
		c-95.434-10.305-130.34-41.637-135.636-100.443l10.306-0.859c-4.942-41.561-3.871-85.482-2.581-127.912l-8.155-1.712
		c-2.716-60.527,29.762-96.581,182.426-109.458c163.256,1.434,331.656,6.3,500.056,17.17
		C849.869,312.248,883.35,360.893,881.633,448.171L881.633,448.171z"/>
	
		<linearGradient id="path933_1_" gradientUnits="userSpaceOnUse" x1="486.8541" y1="787.7142" x2="507.8375" y2="788.0153" gradientTransform="matrix(-3.614412e-008 0.8269 0.8601 3.759767e-008 201.613 -22.6282)">
		<stop  offset="0" style="stop-color:#393F44"/>
		<stop  offset="1" style="stop-color:#FFFFFF"/>
	</linearGradient>
	<path id="path933" fill="url(#path933_1_)" stroke="#000000" stroke-width="0.75" d="M875.954,393.59
		c1.618,0.607,8.7-4.444,8.498-6.063c-0.202-1.62-8.296-4.655-9.713-3.644C873.323,384.895,874.335,392.982,875.954,393.59z"/>
	
		<radialGradient id="path826_1_" cx="546.5675" cy="274.1752" r="1340.2039" gradientTransform="matrix(-3.904643e-008 0.8933 0.7962 3.480264e-008 256.1071 -34.8041)" gradientUnits="userSpaceOnUse">
		<stop  offset="0" style="stop-color:#000000"/>
		<stop  offset="1" style="stop-color:#FFFFFF"/>
	</radialGradient>
	<path id="path826" fill="url(#path826_1_)" stroke="#000000" d="M572.71,325.531c43.104,18.815,44.917,244.025,0,254.955
		l-6.68,6.679l0.607-6.679c-34.299,1.214-83.163,4.554-101.978,9.1c-6.274,1.923-8.905,6.882-13.358,10.322
		c-53.823,3.745-85.491-3.138-101.371-35.21c-4.959-19.523-9.614-132.533-4.857-203.349c5.667-49.176,52.608-61.312,109.872-52.819
		c5.769,7.489,9.715,11.031,23.673,13.359c28.732,5.87,58.073,5.667,88.02,3.036l-1.821-6.68L572.71,325.531L572.71,325.531z"/>
	<path id="path827" fill="none" stroke="#FFFFFF" stroke-opacity="0.6484" d="M536.285,336.453c6.072,77.707,6.68,154.19,0,229.46"
		/>
	<path id="path828" fill="none" stroke="#FFFFFF" stroke-opacity="0.6953" d="M470.125,583.522
		c10.719-43.914,15.981-170.982-0.607-257.383"/>
	<path id="path829" fill="none" stroke="#FFFFFF" stroke-opacity="0.5703" d="M423.985,317.638
		c-28.328,5.87-28.126,268.515,2.429,274.376"/>
	<path id="path830" stroke="#000000" stroke-width="2.5" d="M355.395,371.056c-4.149,58.579-2.53,112.605,1.215,167.541
		c6.376,21.15,38.541,11.941,40.059-3.037c2.429-50.988,3.036-106.835,1.822-160.253C391.111,345.358,355.8,347.585,355.395,371.056
		z"/>
	
		<linearGradient id="path831_1_" gradientUnits="userSpaceOnUse" x1="515.1115" y1="-479.1158" x2="517.6314" y2="308.8942" gradientTransform="matrix(-4.297614e-008 0.9832 0.7234 3.162090e-008 318.1406 -51.2907)">
		<stop  offset="0" style="stop-color:#1E9CD4"/>
		<stop  offset="1" style="stop-color:#FFFFFF"/>
	</linearGradient>
	<path id="path831" fill="url(#path831_1_)" fill-opacity="0.75" stroke="#000000" d="M282.547,341.917
		c25.394,7.287,19.987,34.94,20.038,41.738l1.037,149.458c0.152,21.557-5.844,31.279-18.646,34.619l-107.442,3.037
		c-50.989,1.82-61.313-219.137-1.822-229.459L282.547,341.917z"/>
	<g id="g880">
		<path id="path837" fill-opacity="0.9184" d="M728.114,371.992c-0.464,4.031,0.067,8.434,0.126,12.481
			c0.118,7.675,0.278,15.341,0.523,23.015l-1.366,0.051c-0.017-7.675-0.135-15.341-0.396-22.999
			c-0.16-4.183-0.211-8.391-0.684-12.549H728.114z"/>
		<path id="path838" fill-opacity="0.9184" d="M716.636,372.025c-0.464,4.031,0.068,8.434,0.127,12.481
			c0.118,7.675,0.278,15.341,0.515,23.015l-1.366,0.051c-0.018-7.675-0.135-15.341-0.396-22.999
			c-0.152-4.174-0.202-8.391-0.684-12.549H716.636z"/>
		<path id="path839" fill-opacity="0.9184" d="M696.244,372.135c-0.464,4.031,0.067,8.434,0.126,12.482
			c0.118,7.666,0.278,15.34,0.523,23.015l-1.375,0.042c-0.009-7.666-0.135-15.332-0.396-22.998
			c-0.151-4.175-0.202-8.392-0.683-12.541H696.244z"/>
		<path id="path840" fill-opacity="0.9184" d="M708.262,372.025c-0.464,4.031,0.067,8.434,0.127,12.481
			c0.117,7.675,0.277,15.341,0.522,23.015l-1.375,0.051c-0.008-7.675-0.135-15.341-0.396-22.999
			c-0.151-4.174-0.202-8.391-0.683-12.549H708.262z"/>
		<path id="path841" fill-opacity="0.9184" d="M700.427,372.135c-0.464,4.031,0.067,8.434,0.127,12.482
			c0.118,7.666,0.278,15.34,0.522,23.015l-1.375,0.042c-0.008-7.666-0.126-15.332-0.388-22.998
			c-0.16-4.175-0.211-8.392-0.683-12.541H700.427z"/>
		<path id="path842" fill-opacity="0.9184" d="M720.279,372.236c-0.464,4.031,0.067,8.442,0.127,12.481
			c0.118,7.674,0.278,15.349,0.522,23.015l-1.375,0.051c-0.008-7.667-0.126-15.333-0.396-22.999
			c-0.152-4.174-0.203-8.391-0.675-12.549H720.279z"/>
		<path id="path843" fill-opacity="0.9184" d="M724.361,372.135c-0.464,4.031,0.067,8.434,0.126,12.482
			c0.118,7.666,0.278,15.34,0.523,23.015l-1.375,0.042c-0.008-7.666-0.135-15.332-0.396-22.998
			c-0.151-4.175-0.202-8.392-0.683-12.541H724.361z"/>
		<path id="path844" fill-opacity="0.9184" d="M704.509,371.915c-0.464,4.031,0.067,8.442,0.127,12.482
			c0.117,7.674,0.277,15.349,0.522,23.015l-1.375,0.05c-0.008-7.666-0.135-15.332-0.396-22.998
			c-0.151-4.175-0.202-8.392-0.683-12.549H704.509z"/>
		<path id="path845" fill-opacity="0.9184" d="M712.234,372.135c-0.463,4.031,0.068,8.434,0.127,12.482
			c0.118,7.666,0.278,15.34,0.522,23.015l-1.374,0.042c-0.009-7.666-0.135-15.332-0.396-22.998
			c-0.152-4.175-0.202-8.392-0.684-12.541H712.234z"/>
		<path id="path846" fill-opacity="0.9184" d="M692.061,371.705c-0.464,4.031,0.067,8.433,0.127,12.481
			c0.118,7.666,0.278,15.34,0.522,23.015l-1.374,0.042c-0.009-7.666-0.136-15.332-0.396-22.99
			c-0.152-4.183-0.203-8.391-0.684-12.549H692.061L692.061,371.705z"/>
		<path id="path847" fill-opacity="0.9184" d="M687.658,371.806c-0.464,4.04,0.067,8.442,0.127,12.481
			c0.118,7.675,0.278,15.349,0.522,23.023l-1.374,0.042c-0.009-7.666-0.135-15.333-0.396-22.999
			c-0.152-4.174-0.202-8.391-0.684-12.549H687.658L687.658,371.806z"/>
		<path id="path848" fill-opacity="0.9184" d="M683.687,371.806c-0.464,4.04,0.067,8.442,0.126,12.481
			c0.118,7.675,0.278,15.349,0.523,23.023l-1.366,0.042c-0.017-7.666-0.135-15.333-0.396-22.999
			c-0.16-4.174-0.211-8.391-0.684-12.549H683.687L683.687,371.806z"/>
		<path id="path849" fill-opacity="0.9184" d="M679.714,371.705c-0.464,4.031,0.067,8.433,0.127,12.481
			c0.126,7.666,0.287,15.34,0.522,23.015l-1.366,0.042c-0.017-7.666-0.135-15.332-0.396-22.99c-0.16-4.183-0.202-8.391-0.683-12.549
			H679.714L679.714,371.705z"/>
		<path id="path850" fill-opacity="0.9184" d="M675.852,371.595c-0.464,4.031,0.067,8.434,0.127,12.481
			c0.126,7.675,0.278,15.349,0.522,23.015l-1.366,0.051c-0.017-7.675-0.135-15.332-0.396-22.998
			c-0.16-4.175-0.211-8.392-0.683-12.549H675.852z"/>
	</g>
	<g id="g865">
		<path id="path851" fill-opacity="0.9184" d="M727.634,530.255c-0.464-4.031,0.067-8.434,0.126-12.473
			c0.118-7.675,0.278-15.35,0.523-23.023l-1.375-0.043c-0.009,7.666-0.135,15.332-0.396,22.999
			c-0.151,4.174-0.202,8.391-0.683,12.54H727.634z"/>
		<path id="path852" fill-opacity="0.9184" d="M716.148,530.222c-0.464-4.031,0.067-8.434,0.126-12.482
			c0.118-7.666,0.278-15.34,0.522-23.015l-1.374-0.042c-0.009,7.666-0.135,15.332-0.396,22.989
			c-0.151,4.184-0.202,8.392-0.675,12.55H716.148z"/>
		<path id="path853" fill-opacity="0.9184" d="M695.764,530.12c-0.464-4.031,0.067-8.442,0.126-12.481
			c0.118-7.675,0.278-15.35,0.515-23.023l-1.366-0.042c-0.017,7.666-0.135,15.332-0.396,22.998
			c-0.152,4.174-0.202,8.391-0.684,12.549H695.764L695.764,530.12z"/>
		<path id="path854" fill-opacity="0.9184" d="M707.781,530.222c-0.464-4.031,0.067-8.434,0.126-12.482
			c0.118-7.666,0.278-15.34,0.523-23.015l-1.375-0.042c-0.009,7.666-0.135,15.332-0.396,22.989
			c-0.151,4.184-0.202,8.392-0.683,12.55H707.781z"/>
		<path id="path855" fill-opacity="0.9184" d="M699.946,530.12c-0.464-4.031,0.067-8.442,0.126-12.481
			c0.118-7.675,0.278-15.35,0.523-23.023l-1.375-0.042c-0.008,7.666-0.135,15.332-0.396,22.998
			c-0.151,4.174-0.202,8.391-0.683,12.549H699.946L699.946,530.12z"/>
		<path id="path856" fill-opacity="0.9184" d="M719.799,530.011c-0.464-4.031,0.067-8.442,0.126-12.481
			c0.118-7.675,0.278-15.35,0.523-23.016l-1.375-0.051c-0.008,7.666-0.135,15.332-0.396,22.998
			c-0.151,4.175-0.202,8.392-0.683,12.55H719.799z"/>
		<path id="path857" fill-opacity="0.9184" d="M723.872,530.12c-0.464-4.031,0.067-8.442,0.127-12.481
			c0.117-7.675,0.278-15.35,0.522-23.023l-1.366-0.042c-0.017,7.666-0.135,15.332-0.396,22.998
			c-0.16,4.174-0.211,8.391-0.683,12.549H723.872L723.872,530.12z"/>
		<path id="path858" fill-opacity="0.9184" d="M704.02,530.331c-0.464-4.031,0.067-8.434,0.127-12.481
			c0.126-7.675,0.278-15.35,0.522-23.016l-1.366-0.051c-0.017,7.675-0.135,15.333-0.396,22.999
			c-0.16,4.174-0.211,8.391-0.683,12.549H704.02z"/>
		<path id="path859" fill-opacity="0.9184" d="M711.745,530.12c-0.464-4.031,0.067-8.442,0.126-12.481
			c0.127-7.675,0.287-15.35,0.523-23.023l-1.366-0.042c-0.018,7.666-0.136,15.332-0.396,22.998
			c-0.16,4.174-0.203,8.391-0.684,12.549H711.745L711.745,530.12z"/>
		<path id="path860" fill-opacity="0.9184" d="M691.571,530.542c-0.463-4.031,0.068-8.434,0.127-12.474
			c0.127-7.674,0.278-15.349,0.522-23.023l-1.366-0.042c-0.017,7.666-0.135,15.332-0.396,22.998
			c-0.161,4.175-0.211,8.392-0.684,12.541H691.571z"/>
		<path id="path861" fill-opacity="0.9184" d="M687.178,530.441c-0.464-4.031,0.067-8.441,0.127-12.481
			c0.118-7.675,0.278-15.349,0.514-23.015l-1.366-0.051c-0.017,7.666-0.135,15.332-0.396,22.998
			c-0.152,4.175-0.203,8.392-0.684,12.549H687.178z"/>
		<path id="path862" fill-opacity="0.9184" d="M683.206,530.441c-0.464-4.031,0.067-8.441,0.126-12.481
			c0.118-7.675,0.278-15.349,0.523-23.015l-1.375-0.051c-0.009,7.666-0.135,15.332-0.396,22.998
			c-0.151,4.175-0.202,8.392-0.683,12.549H683.206z"/>
		<path id="path863" fill-opacity="0.9184" d="M679.234,530.542c-0.464-4.031,0.067-8.434,0.127-12.474
			c0.118-7.674,0.278-15.349,0.522-23.023l-1.375-0.042c-0.008,7.666-0.135,15.332-0.396,22.998
			c-0.152,4.175-0.203,8.392-0.684,12.541H679.234z"/>
		<path id="path864" fill-opacity="0.9184" d="M675.371,530.652c-0.464-4.031,0.067-8.434,0.126-12.481
			c0.118-7.675,0.278-15.341,0.523-23.016l-1.375-0.05c-0.008,7.674-0.135,15.34-0.396,22.998
			c-0.151,4.183-0.202,8.392-0.683,12.549H675.371z"/>
	</g>
	<path id="path895" fill="none" stroke="#000000" stroke-width="1.1271" stroke-opacity="0.5378" d="M601.367,289.461
		c5.06,5.76,6.949,8.948,7.024,12.642c0.684,9.201-27.661,3.956-41.948,8.256c-3.475,0.346-4.124,1.594-4.992,3.356"/>
	<path id="path896" fill="none" stroke="#000000" stroke-opacity="0.5378" d="M602.734,611.495c4.79-4.79,6.578-7.438,6.653-10.517
		c0.642-7.649-26.186-3.289-39.704-6.865c-3.289-0.286-3.896-1.323-4.724-2.791"/>
	<path id="path897" fill="none" stroke="#000000" stroke-width="0.875" d="M655.856,481.223
		c75.691,6.3,199.022,10.879,202.599-31.331c-6.581-42.64-131.63-35.918-203.889-30.049
		C658.648,422.061,658.217,478.575,655.856,481.223z"/>
	<path id="path898" fill-opacity="0.8973" stroke="#000000" d="M654.785,420.484c-1.864,8.442-2.438,55.729,0.852,59.457
		c1.939-8.374,1.721-16.74,1.939-28.337C657.5,437.157,656.783,428.715,654.785,420.484z"/>
	<path id="path899" fill="none" stroke="#000000" stroke-opacity="0.6314" d="M636.881,608.974
		c5.565-3.475,13.873-12.718,13.822-24.086c-0.245-35.564,4.967-102.392,4.563-105.63"/>
	<path id="path900" fill="none" stroke="#000000" stroke-opacity="0.6344" d="M636.046,290.718
		c5.565,3.483,13.873,12.726,13.822,24.095c-0.245,35.564,4.967,102.383,4.563,105.621"/>
	
		<linearGradient id="path905_1_" gradientUnits="userSpaceOnUse" x1="437.0861" y1="603.8451" x2="465.6161" y2="603.8051" gradientTransform="matrix(-2.924906e-008 0.6691 1.063 4.646348e-008 28.7604 6.2982)">
		<stop  offset="0" style="stop-color:#393F44"/>
		<stop  offset="1" style="stop-color:#FFFFFF"/>
	</linearGradient>
	<path id="path905" fill="url(#path905_1_)" stroke="#000000" d="M675.599,300.34l8.805,10.921l-4.251,3.34l-13.35,1.518
		l-0.911,1.214l-9.108-4.554l6.072-3.643l14.564,0.304C678.331,306.412,677.117,303.376,675.599,300.34L675.599,300.34z"/>
	<path id="path904" fill="#283970" stroke="#000000" d="M671.508,316.711c-3.1,0.099-5.66-4.029-5.719-9.22
		c-0.06-5.191,2.405-9.479,5.505-9.579c0.071-0.002,0.143-0.002,0.214,0c3.1-0.1,5.661,4.028,5.72,9.219
		c0.06,5.191-2.405,9.48-5.505,9.579C671.651,316.713,671.58,316.713,671.508,316.711z"/>
	<path id="path906" fill="none" stroke="#232D3F" d="M632.959,593.077c-1.257,0.085-2.315-1.578-2.365-3.713
		c-0.05-2.136,0.929-3.936,2.185-4.021c0.061-0.004,0.12-0.004,0.181,0c1.256-0.085,2.314,1.578,2.364,3.713
		c0.05,2.136-0.928,3.936-2.184,4.021C633.079,593.08,633.019,593.08,632.959,593.077z"/>
	<path id="path907" stroke="#3D5852" stroke-width="2.125" stroke-linecap="round" d="M636.956,589.433
		c-4.25,0-4.25-0.151-4.25-0.151"/>
	
		<linearGradient id="path909_1_" gradientUnits="userSpaceOnUse" x1="409.6808" y1="87.3451" x2="470.1721" y2="98.6854" gradientTransform="matrix(-3.355368e-008 0.7676 0.9266 4.050256e-008 144.9785 -11.7612)">
		<stop  offset="0" style="stop-color:#1E9CD4"/>
		<stop  offset="1" style="stop-color:#FFFFFF"/>
	</linearGradient>
	<path id="path909" fill="url(#path909_1_)" fill-opacity="0.75" stroke="#000000" d="M248.559,305.805v24.584
		c0,1.645-1.694,3.584-3.34,3.643l-28.53,0.911c-2.556,0.076-6.376-1.704-6.376-4.25v-8.198c-0.961-1.315-1.315-5.212,0.304-9.412
		v-5.153c0-1.872,2.387-3.551,4.251-3.644l30.049-1.518C246.493,302.685,248.559,304.22,248.559,305.805L248.559,305.805z"/>
	<path id="path910" fill="none" stroke="#000000" d="M211.073,313.539c1.188-0.86,6.755,3.061,6.679,4.706s-6.021,5.946-7.135,5.162
		C209.504,322.621,209.883,314.399,211.073,313.539L211.073,313.539z"/>
	
		<linearGradient id="path911_1_" gradientUnits="userSpaceOnUse" x1="1221.7999" y1="555.3861" x2="1249.7972" y2="554.5562" gradientTransform="matrix(-1.999028e-008 0.4573 1.5552 6.798104e-008 -390.7587 45.1406)">
		<stop  offset="0" style="stop-color:#393F44"/>
		<stop  offset="1" style="stop-color:#FFFFFF"/>
	</linearGradient>
	<path id="path911" fill="url(#path911_1_)" fill-opacity="0.75" stroke="#000000" stroke-width="0.375" d="M481.654,608.105
		c0.253,1.923-0.102,1.797-0.607,2.126c-8.315,0.05-10.719,1.163-13.351,1.518c-0.784,0.278-3.087-1.189-4.857-4.857
		c-4.529-0.051-3.745,0.202-6.983,3.946c-0.354,1.721,3.087,4.731,4.858,5.162c4.275,0.371,8.627,0.446,13.055,0
		c6.696-0.734,7.936-3.289,14.868-4.251c0.127-3.795-3.314-1.29-3.036-3.644H481.654z"/>
	
		<linearGradient id="path912_1_" gradientUnits="userSpaceOnUse" x1="561.0675" y1="552.8666" x2="528.5567" y2="553.6966" gradientTransform="matrix(-1.999028e-008 0.4573 1.5552 6.798104e-008 -390.7587 45.1406)">
		<stop  offset="0" style="stop-color:#393F44"/>
		<stop  offset="1" style="stop-color:#FFFFFF"/>
	</linearGradient>
	<path id="path912" fill="url(#path912_1_)" fill-opacity="0.75" stroke="#000000" stroke-width="0.375" d="M479.242,296.242
		c0.253-1.923-0.102-1.796-0.607-2.125c-8.324-0.051-10.728-1.164-13.358-1.518c-0.785-0.278-3.087,1.189-4.858,4.857
		c-4.521,0.051-3.744-0.202-6.975-3.947c-0.354-1.72,3.078-4.731,4.85-5.161c4.275-0.371,8.628-0.447,13.055,0
		c6.705,0.733,7.944,3.289,14.869,4.25c0.126,3.795-3.307,1.29-3.028,3.643H479.242L479.242,296.242z"/>
	<path id="path913" fill-opacity="0.5015" stroke="#000000" stroke-width="0.875" d="M561.08,312.476l2.269,10.778
		c-46.401,2.91-97.474-0.101-105.975-15.18C488.889,309.086,527.902,310.25,561.08,312.476z"/>
	<path id="path914" fill-opacity="0.5015" stroke="#000000" stroke-width="0.875" d="M563.568,592.141l0.776-10.045
		c-76.719,5.01-101.168,6.114-110.994,18.512C484.867,599.596,530.382,594.367,563.568,592.141L563.568,592.141z"/>
	<path id="path915" fill="none" stroke="#000000" stroke-width="1.25" stroke-opacity="0.8006" d="M399.401,305.502
		c-72.436,7.025-59.076,77.149-58.916,150.842c0.515,98.242-4.166,135.012,62.256,144.475"/>
	<path id="path916" fill-opacity="0.5015" stroke="#000000" stroke-width="0.75" d="M564.631,316.777
		c41.273,13.764,64.229,55.695,65.14,133.19c-1.72,112.909-36.18,122.303-63.395,138.091l6.941-6.967
		c19.118-9.107,34.603-59.793,32.78-131.125c-2.226-74.662-15.433-115.151-34.754-125.769L564.631,316.777L564.631,316.777z"/>
	
		<linearGradient id="path917_1_" gradientUnits="userSpaceOnUse" x1="183.2345" y1="209.4945" x2="665.4713" y2="212.3045" gradientTransform="matrix(-2.710468e-008 0.6201 1.147 5.013883e-008 -42.8965 15.2944)">
		<stop  offset="0" style="stop-color:#393F44"/>
		<stop  offset="1" style="stop-color:#FFFFFF"/>
	</linearGradient>
	<path id="path917" fill="url(#path917_1_)" fill-opacity="0.75" stroke="#000000" d="M301.977,282.124
		c-132.339-10.011-196.948,29.492-204.875,87.414c-0.295,2.066,1.889,4.529,3.644,5.161c2.698,0.979,9.715-1.417,9.715-0.304v15.181
		l6.089,1.282C116.549,320.142,173.282,292.143,301.977,282.124z"/>
	
		<linearGradient id="path919_1_" gradientUnits="userSpaceOnUse" x1="1267.1105" y1="246.4584" x2="750.4617" y2="238.3084" gradientTransform="matrix(-2.589222e-008 0.5923 1.2007 5.248338e-008 -88.6072 20.3805)">
		<stop  offset="0" style="stop-color:#393F44"/>
		<stop  offset="1" style="stop-color:#FFFFFF"/>
	</linearGradient>
	<path id="path919" fill="url(#path919_1_)" fill-opacity="0.75" stroke="#000000" d="M305.173,623.412
		C158.27,634.645,107.93,594.231,97.271,537.516c-0.354-2.059,6.131-1.787,7.885-2.428c2.699-0.979,7.262,3.238,7.287,2.125
		l0.303-13.959l3.947,0.305C121.247,588.202,175.103,626.313,305.173,623.412L305.173,623.412z"/>
	<path id="path920" fill="none" stroke="#000000" stroke-opacity="0.6888" d="M452.515,601.73
		c-1.315,7.286-3.693,13.51-6.671,17.297"/>
	<path id="path921" fill="none" stroke="#000000" stroke-opacity="0.6888" d="M449.631,302.618
		c-1.315-7.287-3.686-13.511-6.671-17.306"/>
	
		<linearGradient id="path922_1_" gradientUnits="userSpaceOnUse" x1="678.5597" y1="-223.1735" x2="618.6605" y2="-158.3744" gradientTransform="matrix(-4.105921e-008 0.9393 0.7572 3.309767e-008 289.348 -43.2482)">
		<stop  offset="0" style="stop-color:#393F44"/>
		<stop  offset="1" style="stop-color:#FFFFFF"/>
	</linearGradient>
	<path id="path922" fill="url(#path922_1_)" fill-opacity="0.75" stroke="#000000" d="M141.715,552.258
		c-1.771-2.631-3.534-4.656-5.761-6.072c-5.718-1.266-10.677-1.467-15.787-0.607c-0.86,4.605,0.102,9.514,1.518,13.359l2.126,0.607
		c5.667,13.35,16.336,25.645,25.19,37.326c3.593,0.203,7.944,0.102,12.448-1.063c0.81-1.469-16.445-20.992-23.065-40.363
		C139.793,554.991,141.21,553.776,141.715,552.258L141.715,552.258z"/>
	
		<linearGradient id="path923_1_" gradientUnits="userSpaceOnUse" x1="395.1256" y1="-211.9967" x2="431.8756" y2="-176.3967" gradientTransform="matrix(-4.105921e-008 0.9393 0.7572 3.309767e-008 289.348 -43.2482)">
		<stop  offset="0" style="stop-color:#393F44"/>
		<stop  offset="1" style="stop-color:#FFFFFF"/>
	</linearGradient>
	<path id="path923" fill="url(#path923_1_)" fill-opacity="0.75" stroke="#000000" d="M139.742,359.156
		c-1.771,2.631-3.542,4.647-5.769,6.064c-5.71,1.265-10.668,1.467-15.779,0.607c-0.86-4.596,0.102-9.504,1.519-13.35l2.125-0.607
		c5.667-13.358,16.336-25.646,25.19-37.335c3.593-0.203,7.944-0.101,12.439,1.063c0.81,1.467-16.437,20.991-23.065,40.371
		C137.819,356.423,139.236,357.638,139.742,359.156z"/>
	<path id="path924" fill="#E50000" stroke="#000000" d="M124.115,560c-0.565-1.283,4.967-1.764,6.072-0.305
		c3.786,4.809,8.652,12.861,10.466,17.297c0.691,1.316-5.195,1.865-6.216,0.305C131.131,572.516,125.962,564.504,124.115,560z"/>
	<path id="path925" fill="#E50000" stroke="#000000" d="M142.323,579.422c3.39,4.596,8.947,11.537,11.081,15.932
		c0.523,1.012-3.651,1.703-4.554,0.607c-4.209-4.926-9.656-11.369-12.592-15.932C135.449,578.832,141.235,577.862,142.323,579.422z"
		/>
	<path id="path926" fill="#E50000" stroke="#000000" d="M122.065,351.085c-0.564,1.273,4.968,1.763,6.072,0.304
		c3.778-4.816,8.645-12.87,10.466-17.306c0.691-1.316-5.195-1.864-6.224-0.304C129.082,338.569,123.912,346.573,122.065,351.085
		L122.065,351.085z"/>
	<path id="path927" fill="#E50000" stroke="#000000" d="M140.273,331.654c3.391-4.597,8.948-11.537,11.082-15.931
		c0.522-1.012-3.66-1.695-4.555-0.607c-4.208,4.925-9.656,11.368-12.6,15.939C133.4,332.245,139.176,333.214,140.273,331.654z"/>
	
		<radialGradient id="path928_1_" cx="517.8361" cy="-29.7794" r="16.0111" gradientTransform="matrix(-3.292441e-008 0.7532 0.9443 4.127670e-008 129.8843 -9.1212)" gradientUnits="userSpaceOnUse">
		<stop  offset="0" style="stop-color:#393F44"/>
		<stop  offset="1" style="stop-color:#FFFFFF"/>
	</radialGradient>
	<path id="path928" fill="url(#path928_1_)" fill-opacity="0.75" stroke="#000000" d="M100.138,374.699
		c-2.581,0.118-4.993,3.34-5.921,5.01c-0.337,0.607,2.201,1.138,2.126,1.821c-0.127,1.088-4.191,3.264-2.732,3.492l16.698,2.581
		l-0.152-13.359L100.138,374.699L100.138,374.699z"/>
	
		<radialGradient id="path929_1_" cx="716.8947" cy="-27.5187" r="17.2821" gradientTransform="matrix(-3.292441e-008 0.7532 0.9443 4.127670e-008 129.8843 -9.1212)" gradientUnits="userSpaceOnUse">
		<stop  offset="0" style="stop-color:#393F44"/>
		<stop  offset="1" style="stop-color:#FFFFFF"/>
	</radialGradient>
	<path id="path929" fill="url(#path929_1_)" fill-opacity="0.75" stroke="#000000" d="M102.272,537.078
		c-2.59-0.119-4.993-3.332-5.921-5.002c-0.337-0.607,2.201-1.139,2.125-1.822c-0.126-1.088-4.191-3.271-2.732-3.49l16.69-2.582
		l-0.152,13.352L102.272,537.078L102.272,537.078z"/>
	
		<linearGradient id="path930_1_" gradientUnits="userSpaceOnUse" x1="542.5616" y1="663.5511" x2="590.1916" y2="749.8712" gradientTransform="matrix(-4.701645e-008 1.0756 0.6612 2.890291e-008 371.1317 -68.2413)">
		<stop  offset="0" style="stop-color:#BFCA54"/>
		<stop  offset="1" style="stop-color:#FFFFFF"/>
	</linearGradient>
	<path id="path930" fill="url(#path930_1_)" fill-opacity="0.75" stroke="#000000" stroke-width="0.625" d="M842.229,575.021
		c17.202-20.03,20.439-30.96,23.981-39.765C846.276,537.685,840.609,559.242,842.229,575.021z"/>
	
		<linearGradient id="path931_1_" gradientUnits="userSpaceOnUse" x1="443.6261" y1="626.8763" x2="378.5775" y2="777.222" gradientTransform="matrix(-4.327843e-008 0.9901 0.7184 3.140156e-008 322.416 -52.5589)">
		<stop  offset="0" style="stop-color:#BFCA54"/>
		<stop  offset="1" style="stop-color:#FFFFFF"/>
	</linearGradient>
	<path id="path931" fill="url(#path931_1_)" fill-opacity="0.75" stroke="#000000" stroke-width="0.625" d="M838.871,320.522
		c18.414,18.208,23.473,28.53,27.014,37.335C845.349,359.679,840.896,335.095,838.871,320.522L838.871,320.522z"/>
	
		<linearGradient id="path932_1_" gradientUnits="userSpaceOnUse" x1="634.6876" y1="785.4984" x2="655.4493" y2="785.8015" gradientTransform="matrix(-3.615076e-008 0.827 0.86 3.759030e-008 201.7571 -22.6561)">
		<stop  offset="0" style="stop-color:#393F44"/>
		<stop  offset="1" style="stop-color:#FFFFFF"/>
	</linearGradient>
	<path id="path932" fill="url(#path932_1_)" fill-opacity="0.75" stroke="#000000" stroke-width="0.875" d="M874.101,505.511
		c1.619-0.606,8.701,4.453,8.499,6.072c-0.203,1.619-8.296,4.655-9.713,3.644C871.471,514.215,872.483,506.119,874.101,505.511
		L874.101,505.511z"/>
	<path id="path934" fill="none" stroke="#000000" stroke-width="0.625" stroke-opacity="0.8127" d="M828.271,349.811
		c-69.813-0.81-106.229-6.477-162.075-15.172"/>
	<path id="path935" fill="none" stroke="#000000" stroke-width="0.625" stroke-opacity="0.716" d="M836.772,534.953
		c-56.858,1.619-120.396,11.74-165.111,21.253"/>
</g>
</svg>
