<?xml version="1.0" encoding="utf-8"?>
<!-- Generator: Adobe Illustrator 16.0.0, SVG Export Plug-In . SVG Version: 6.00 Build 0)  -->
<!DOCTYPE svg PUBLIC "-//W3C//DTD SVG 1.1//EN" "http://www.w3.org/Graphics/SVG/1.1/DTD/svg11.dtd">
<svg version="1.1"
	 id="svg171" xmlns:rdf="http://www.w3.org/1999/02/22-rdf-syntax-ns#" xmlns:cc="http://creativecommons.org/ns#" xmlns:dc="http://purl.org/dc/elements/1.1/"
	 xmlns="http://www.w3.org/2000/svg" xmlns:xlink="http://www.w3.org/1999/xlink" x="0px" y="0px" width="811px" height="385px"
	 viewBox="-105.5 201.5 811 385" enable-background="new -105.5 201.5 811 385" xml:space="preserve">
<path id="rect959" fill="#60585A" d="M74.08,238.138v10.641c0,4.757-3.856,8.613-8.613,8.613H3.734
	c-4.757,0-8.613-3.856-8.613-8.613v-10.641c0-4.757,3.856-8.613,8.613-8.613h61.732C70.223,229.524,74.08,233.381,74.08,238.138z"/>
<path id="rect958" fill="#60585A" d="M84.114,534.128v10.641c0,4.757-3.856,8.613-8.614,8.613H13.768
	c-4.758,0-8.614-3.856-8.614-8.613v-10.641c0-4.758,3.856-8.614,8.614-8.614H75.5C80.257,525.514,84.114,529.37,84.114,534.128z"/>
<g id="g786" transform="matrix(-1 0 0 -1 282.65 766.12)">
	<path id="path787" fill="#4A00AD" d="M-349.4,346.214c0.322-5.491,0.39-11.174-0.341-16.622c-0.715-3.586-3.779-11.512-8.706-7.681
		c-5.059,5.263-4.283,14.579-3.716,21.231l-6.014,0.516c-0.753-9.159-0.995-20.232,6.351-26.931
		c9.553-6.001,16.453,3.388,18.077,12.065c0.735,5.801,0.35,11.603,0.69,17.42L-349.4,346.214L-349.4,346.214z"/>
	<path id="path788" fill="#4A00AD" d="M-381.125,346.214c-0.322-5.491-0.389-11.174,0.342-16.622
		c0.714-3.586,3.779-11.512,8.706-7.681c5.059,5.263,4.283,14.579,3.715,21.231l6.014,0.516c0.753-9.159,0.996-20.232-6.35-26.931
		c-9.553-6.001-16.454,3.388-18.077,12.065c-0.735,5.801-0.351,11.603-0.69,17.42L-381.125,346.214L-381.125,346.214z"/>
	<path id="path789" fill="#4A00AD" d="M-367.35,367.639c0.197-2.071,0.111-4.201,0.123-6.277c0.005-1.758,0.905-7.657-1.001-8.752
		c-1.358-0.386-2.914,0.271-3.673,1.413c-1.422,2.767-0.698,6.503-0.556,9.472c0.175,3.633,0.575,8.559-3.845,9.669
		c-3.609,0.344-7.07-1.905-9.164-4.71c-2.282-3.711-1.86-7.936-1.34-12.075c0.328-2.465,0.705-4.924,0.983-7.395l3.814,0.454
		c-0.296,2.479-0.706,4.943-1.034,7.418c-0.37,3.027-0.933,6.501,0.679,9.272c1.127,1.595,3.204,3.134,5.24,3.146
		c1.517,0.015,0.918-4.72,0.875-5.583c-0.214-4.005-0.861-8.359,1.211-11.994c2.194-2.929,6.39-4.223,9.517-1.95
		c2.816,2.966,2.09,7.847,2.103,11.615c0.009,2.076-0.076,4.206,0.121,6.277H-367.35L-367.35,367.639z"/>
	<g id="g790" transform="matrix(1.166 0 0 1.0624 -26.21 -45.238)">
		<path id="path791" fill="#4A00AD" d="M-289.187,391.665c-0.209,2.262-0.126,4.604-0.137,6.874
			c-0.013,4.282,0.016,8.563,0.031,12.845c0.005,0.858,0.01,1.717,0.033,2.575h-2.951c0.024-0.858,0.029-1.717,0.034-2.575
			c0.015-4.283,0.044-8.564,0.031-12.845c-0.011-2.27,0.071-4.612-0.137-6.874H-289.187L-289.187,391.665z"/>
		<path id="path792" fill="#4A00AD" d="M-291.35,404.279c-1.135-0.175-2.332-0.087-3.472-0.096
			c-2.275-0.012-4.549-0.013-6.825,0.006c-1.507,0.013-3.013,0.031-4.519,0.035c-0.902,0.001-1.804-0.002-2.705-0.005v-3.657
			c0.901-0.002,1.804-0.006,2.705-0.003c1.507,0.003,3.013,0.021,4.519,0.034c2.276,0.02,4.55,0.02,6.825,0.008
			c1.14-0.01,2.337,0.079,3.472-0.097V404.279z"/>
	</g>
	<g id="g793">
		<path id="path794" fill="#4A00AD" d="M-364.119,399.235c-1.712-0.22-3.514-0.114-5.234-0.134
			c-4.324-0.046-8.649-0.051-12.976-0.008c-1.415,0.017-2.832,0.038-4.248,0.066v-3.286c1.416,0.027,2.833,0.049,4.248,0.066
			c4.325,0.043,8.651,0.037,12.976-0.008c1.721-0.021,3.522,0.085,5.234-0.134V399.235L-364.119,399.235z"/>
		<path id="path795" fill="#4A00AD" d="M-363.085,397.178c-0.156,1.415-0.074,2.873-0.113,4.294
			c-0.139,3.037-1.024,5.708-4.426,6.106c-3.406,0.091-5.449-1.778-6.08-5.086c-0.195-1.552-0.137-3.069,0.029-4.621l3.178,0.354
			c-0.138,1.225-0.201,2.43-0.052,3.657c0.297,1.61,0.883,2.426,2.585,2.413c1.54-0.125,1.493-1.603,1.555-2.905
			c0.028-1.388,0.082-2.831-0.073-4.214H-363.085L-363.085,397.178z"/>
		<path id="path796" fill="#4A00AD" d="M-372.186,398.533c-0.136,1.227-0.072,2.5-0.082,3.732c-0.021,2.646,0.185,5.616-1.54,7.814
			c-1.967,1.859-4.387,1.219-6.718,0.522c-1.579-0.474-3.129-0.877-4.783-0.928c-0.323-0.003-0.644,0-0.966,0.008l-0.084-3.316
			c0.385-0.01,0.768-0.013,1.152-0.009c1.938,0.063,3.755,0.528,5.602,1.086c0.847,0.252,2.414,0.956,3.301,0.487
			c1.272-1.12,0.815-4.187,0.804-5.665c-0.01-1.232,0.054-2.505-0.082-3.733L-372.186,398.533L-372.186,398.533z"/>
		<rect id="rect797" x="-366.13" y="395.823" fill="#4A00AD" width="3.035" height="2.361"/>
	</g>
	<path id="path798" fill="#4A00AD" d="M-375.065,435.285c-6.981,0-12.648-5.213-12.648-11.637c0-6.424,5.667-11.636,12.648-11.636
		c6.982,0,12.648,5.212,12.648,11.636C-362.416,430.072-368.082,435.285-375.065,435.285L-375.065,435.285z M-374.742,431.575
		c-4.755,0-8.615-3.552-8.615-7.926c0-4.376,3.86-7.927,8.615-7.927c4.757,0,8.615,3.551,8.615,7.927
		C-366.126,428.023-369.985,431.575-374.742,431.575z"/>
</g>
<path id="rect317" fill="#60585A" d="M600.838,541.652v10.641c0,4.758-3.856,8.614-8.614,8.614h-61.731
	c-4.758,0-8.614-3.856-8.614-8.614v-10.641c0-4.757,3.856-8.613,8.614-8.613h61.731
	C596.981,533.039,600.838,536.896,600.838,541.652z"/>
<path id="rect316" fill="#60585A" d="M597.745,230.458V241.1c0,4.757-3.856,8.613-8.613,8.613h-61.732
	c-4.757,0-8.613-3.856-8.613-8.613v-10.642c0-4.757,3.856-8.613,8.613-8.613h61.732
	C593.889,221.845,597.745,225.701,597.745,230.458z"/>
<radialGradient id="path184_1_" cx="657.5029" cy="473.458" r="1269.3" gradientTransform="matrix(-2.885960e-008 0.6602 1.5248 6.665037e-008 -397.4929 -39.6305)" gradientUnits="userSpaceOnUse">
	<stop  offset="0" style="stop-color:#F8CE00"/>
	<stop  offset="1" style="stop-color:#B79700"/>
</radialGradient>
<path id="path184" fill="url(#path184_1_)" stroke="#000000" d="M-86.395,392.511c-2.37-113.448,17.979-130.837,21.332-147.603
	c38.905-16.761,366.953-19.943,393.772-9.888c60.743,7.518,70.802-4.952,144.011-8.716c85.498-7.164,37.955,9.848,124.895-4.454
	c90.519,21.73,92.361-19.2,100.967,169.084c-2.409,172.786-10.449,148.455-100.967,170.177
	c-86.941-14.302-39.398,2.71-124.895-4.453c-73.205-3.764-83.264-16.234-144.011-8.717c-26.816,10.056-354.862,6.873-393.772-9.888
	c-15.204-26.24-21.332-95.778-21.332-145.556V392.511z"/>
<radialGradient id="path272_1_" cx="896.4639" cy="638.9863" r="15.849" gradientTransform="matrix(-1.714217e-008 0.3922 3.6456 1.593521e-007 -2027.385 -130.6601)" gradientUnits="userSpaceOnUse">
	<stop  offset="0" style="stop-color:#F8CE00"/>
	<stop  offset="1" style="stop-color:#B79700"/>
</radialGradient>
<path id="path272" fill="url(#path272_1_)" d="M416.381,254.858l-82.718,21.606c0,0-155.097,0-157.675-3.086
	c-2.585-3.088-46.527-27.779-46.527-27.779s281.749,6.173,286.926,9.26L416.381,254.858z"/>
<radialGradient id="path274_1_" cx="899.0137" cy="638.9883" r="15.849" gradientTransform="matrix(1.714217e-008 -0.3922 3.6456 1.593521e-007 -2022.3655 919.6115)" gradientUnits="userSpaceOnUse">
	<stop  offset="0" style="stop-color:#F8CE00"/>
	<stop  offset="1" style="stop-color:#B79700"/>
</radialGradient>
<path id="path274" fill="url(#path274_1_)" d="M421.397,533.089l-82.718-21.605c0,0-155.097,0-157.675,3.086
	c-2.585,3.088-46.527,27.778-46.527,27.778s281.749-6.172,286.926-9.26L421.397,533.089z"/>
<path id="path230" fill="#F7CE00" stroke="#000000" stroke-opacity="0.4591" d="M654.533,250.505
	c-18.729-11.706-196.876-10.852-210.923,7.878c14.9,18.09,28.742,122.89,27.455,142.815c1.497,20.356-8.081,100.027-22.772,124.506
	c-2.137,6.599,206.237,19.793,220.284,1.063c16.398-58.535,16.398-252.854-14.037-276.262H654.533z"/>
<radialGradient id="path275_1_" cx="294.5874" cy="194.5386" r="91.2312" gradientTransform="matrix(-6.596619e-008 1.5091 0.7445 3.254189e-008 255.9096 -51.9949)" gradientUnits="userSpaceOnUse">
	<stop  offset="0" style="stop-color:#F8CE00"/>
	<stop  offset="1" style="stop-color:#B79700"/>
</radialGradient>
<path id="path275" fill="url(#path275_1_)" d="M440.952,255.086c0,0,26.987,65.75,27.678,139.104
	c0.643,66.053-9.655,95.885-25.103,136.063c-48.919-4.87-95.261-9.74-110.709-21.916c28.324-112.014,28.324-119.318,0-231.331
	c15.441-2.438,105.562-24.354,108.13-21.92L440.952,255.086z"/>
<path id="path185" fill-opacity="0.7044" stroke="#000000" d="M438.133,258.845c0,0,24.845,63.997,25.48,135.401
	c0.592,64.293-8.889,93.328-23.11,132.441c-45.035-4.739-87.697-9.48-101.92-21.332c26.073-109.033,26.072-116.137-0.001-225.171
	c14.222-2.369,97.18-23.701,99.55-21.332L438.133,258.845z"/>
<radialGradient id="path270_1_" cx="378.8633" cy="-26.8682" r="115.3903" gradientTransform="matrix(-5.128267e-008 1.1732 0.9409 4.112789e-008 101.0857 -60.9177)" gradientUnits="userSpaceOnUse">
	<stop  offset="0" style="stop-color:#F8CE00"/>
	<stop  offset="1" style="stop-color:#B79700"/>
</radialGradient>
<path id="path270" fill="url(#path270_1_)" d="M165.997,289.133C106.43,276.723-7.743,266.795-7.743,266.795
	c-17.374,19.856-24.82,121.616-24.82,124.104c0,7.446,7.446,109.204,32.266,126.582c14.892,0,121.616-9.929,168.772-19.856
	c-12.409-86.868-7.445-203.519-2.481-208.485L165.997,289.133z"/>
<path id="path188" fill-opacity="0.7862" stroke="#000000" d="M160.819,294.398C103.934,282.547-5.094,273.066-5.094,273.066
	c-16.591,18.962-23.702,116.137-23.702,118.515c0,7.111,7.111,104.288,30.813,120.884c14.221,0,116.137-9.481,161.177-18.963
	c-11.851-82.957-7.11-194.357-2.37-199.104H160.819z"/>
<path id="path189" fill="#F7CE00" stroke="#000000" stroke-width="1.25" stroke-opacity="0.5535" d="M419.18,536.159l-2.37,28.443
	c0,0-14.221,14.221-21.332,4.74c-7.11-9.481,2.37-33.184,2.37-33.184H419.18z"/>
<path id="path190" fill="#F7CE00" stroke="#000000" stroke-opacity="0.5472" d="M414.435,250.252l-2.37-28.442
	c0,0-14.222-14.222-21.332-4.741c-7.111,9.481,2.369,33.184,2.369,33.184H414.435z"/>
<path id="path304" fill="#2E87CF" fill-opacity="0.566" stroke="#000000" stroke-width="1.082" stroke-opacity="0.2516" d="
	M682.121,265.94c-1.578-9.053-19.062-19.385-21.975-14.633c5.708,11.319,13.551,33.439,15.736,55.168
	c2.308,4.3,9.387,10.172,10.966,10.393C687.698,301.933,684.063,275.816,682.121,265.94L682.121,265.94z"/>
<path id="path306" fill="#2E87CF" fill-opacity="0.566" stroke="#000000" stroke-width="1.082" stroke-opacity="0.2516" d="
	M687.048,512.882c-1.578,9.054-14.682,19.385-17.596,14.633c5.708-11.317,7.53-33.438,9.716-55.168
	c2.308-4.3,11.029-10.168,12.607-10.395C692.625,476.89,688.99,503.006,687.048,512.882L687.048,512.882z"/>
<path id="path307" fill="none" stroke="#000000" stroke-opacity="0.3711" d="M688.789,325.849
	c6.568,37.222,6.021,100.171,2.737,126.993"/>
<path id="path308" fill="none" stroke="#000000" stroke-opacity="0.3711" d="M686.052,325.849
	c6.568,37.222,6.021,100.171,2.738,126.993"/>
<path id="path309" fill="none" stroke="#000000" stroke-opacity="0.3711" d="M682.768,325.849
	c6.569,37.222,6.022,100.171,2.738,126.993"/>
<path id="path310" fill="none" stroke="#000000" stroke-opacity="0.3711" d="M678.936,325.849
	c6.021,37.222,4.928,98.528,3.286,124.806"/>
<path id="path186" fill-opacity="0.6855" stroke="#000000" d="M402.585,256.475l-75.849,16.592c0,0-142.213,0-144.582-2.37
	c-2.369-2.371-42.663-21.332-42.663-21.332s258.351,4.74,263.097,7.11H402.585z"/>
<path id="path211" fill="none" stroke="#000000" d="M387.635,249.654c-25.753-2.341-444.933-15.041-444.823,4.682
	c-26.556,70.09-23.663,222.361,7.024,279.452c0.071,17.588,419.077,7.021,444.822,4.681"/>
<path id="path187" fill-opacity="0.7484" stroke="#000000" d="M407.32,531.424l-75.848-16.592c0,0-142.214,0-144.582,2.37
	c-2.37,2.371-42.663,21.332-42.663,21.332s258.35-4.739,263.096-7.11H407.32z"/>
</svg>
